<?xml version="1.0" encoding="UTF-8"?>
<svg width="14px" height="14px" viewBox="0 0 14 14" version="1.1" xmlns="http://www.w3.org/2000/svg" xmlns:xlink="http://www.w3.org/1999/xlink">
    <!-- Generator: Sketch 49.3 (51167) - http://www.bohemiancoding.com/sketch -->
    <title>Linkedin@2x</title>
    <desc>Created with Sketch.</desc>
    <defs></defs>
    <g id="Page-1" stroke="none" stroke-width="1" fill="none" fill-rule="evenodd">
        <g id="Linkedin" fill="#FFFFFF" fill-rule="nonzero">
            <path d="M0.22667695,4.64864865 L3.13030069,4.64864865 L3.13030069,14 L0.22667695,14 L0.22667695,4.64864865 Z M1.68388589,0 C2.61218196,0 3.36777178,0.75675676 3.36777178,1.68648649 C3.36777178,2.61621622 2.61218196,3.37297297 1.68388589,3.37297297 C0.75019275,3.37297297 0,2.61621622 0,1.68648649 C0,0.75675676 0.75019275,0 1.68388589,0 Z M4.95451041,4.64864865 L7.73400154,4.64864865 L7.73400154,5.92972973 L7.77178103,5.92972973 C8.16037008,5.19459459 9.1048574,4.42162162 10.5188897,4.42162162 C13.4548959,4.42162162 14,6.35675676 14,8.87567568 L14,14 L11.1017733,14 L11.1017733,9.4540541 C11.1017733,8.36756757 11.0855821,6.97297297 9.5959907,6.97297297 C8.0848111,6.97297297 7.85813416,8.15675676 7.85813416,9.372973 L7.85813416,14 L4.95990748,14 L4.95990748,4.64864865 L4.95451041,4.64864865 Z" id="path-1"></path>
        </g>
    </g>
</svg>