<?xml version="1.0" encoding="iso-8859-1"?>
<!-- Generator: Adobe Illustrator 19.0.0, SVG Export Plug-In . SVG Version: 6.00 Build 0)  -->
<svg version="1.1" id="Capa_1" xmlns="http://www.w3.org/2000/svg" xmlns:xlink="http://www.w3.org/1999/xlink" x="0px" y="0px"
	 viewBox="0 0 512.001 512.001" style="enable-background:new 0 0 512.001 512.001;" xml:space="preserve">
<g>
	<g>
		<path d="M257.594,265.106l16.884-16.884c2.955-2.955,2.955-7.746,0-10.701c-2.956-2.955-7.746-2.955-10.702,0l-16.883,16.883
			l-16.884-16.883c-2.955-2.955-7.746-2.955-10.701,0s-2.955,7.746,0,10.701l16.883,16.884l-16.883,16.884
			c-2.955,2.955-2.955,7.746,0,10.701c1.477,1.477,3.414,2.216,5.35,2.216c1.936,0,3.873-0.739,5.35-2.216l16.884-16.883
			l16.883,16.883c1.479,1.477,3.416,2.216,5.352,2.216c1.936,0,3.873-0.739,5.351-2.216c2.955-2.955,2.955-7.746,0-10.701
			L257.594,265.106z"/>
	</g>
</g>
<g>
	<g>
		<path d="M509.094,162.908L349.092,2.907c-1.961-1.961-4.664-3.012-7.445-2.899c-2.77,0.119-5.383,1.403-7.17,3.526L314.265,27.55
			c-0.004,0.005-0.008,0.009-0.012,0.014L57.704,332.393c-0.01,0.011-0.016,0.025-0.026,0.036c-0.234,0.281-0.44,0.576-0.627,0.88
			c-0.033,0.053-0.064,0.107-0.095,0.161c-0.187,0.321-0.354,0.65-0.489,0.989c-0.001,0.002-0.001,0.003-0.002,0.005
			c-0.136,0.342-0.24,0.692-0.324,1.047c-0.013,0.055-0.028,0.109-0.04,0.164c-0.074,0.347-0.123,0.697-0.148,1.05
			c-0.002,0.03-0.011,0.058-0.012,0.088l-2.699,45.036L4.26,430.829c-5.68,5.68-5.68,14.923,0,20.604l56.307,56.307
			c2.84,2.84,6.571,4.261,10.302,4.261s7.462-1.42,10.302-4.261l48.981-48.981l45.035-2.7c0.028-0.002,0.055-0.01,0.084-0.012
			c0.354-0.025,0.706-0.074,1.054-0.148c0.055-0.012,0.108-0.027,0.162-0.04c0.354-0.084,0.705-0.188,1.046-0.324
			c0.002-0.001,0.005-0.002,0.007-0.002c0.339-0.135,0.667-0.302,0.987-0.488c0.055-0.032,0.109-0.063,0.163-0.097
			c0.304-0.187,0.598-0.393,0.879-0.626c0.012-0.01,0.025-0.016,0.037-0.026l29.32-24.677c3.197-2.691,3.607-7.464,0.917-10.662
			c-2.691-3.197-7.463-3.607-10.662-0.917l-24.008,20.205L73.754,336.825l246.854-293.31l18.702,18.702
			c1.478,1.477,3.415,2.216,5.351,2.216c1.936,0,3.873-0.739,5.351-2.216c2.955-2.955,2.955-7.746,0-10.701l-19.623-19.623
			l12.014-14.275l151.979,151.978l-14.275,12.014L375.15,76.655c-2.955-2.955-7.745-2.956-10.702,0
			c-2.955,2.955-2.955,7.746,0,10.701l104.036,104.037l-242.023,203.69c-3.197,2.691-3.607,7.464-0.917,10.662
			s7.464,3.608,10.662,0.917l272.259-229.138c2.123-1.786,3.408-4.399,3.527-7.17C512.11,167.583,511.054,164.869,509.094,162.908z
			 M70.869,496.64L15.36,441.131l45.262-45.262l55.509,55.509L70.869,496.64z M157.487,441.96l-27.711,1.661l-61.397-61.397
			l1.661-27.711L157.487,441.96z"/>
	</g>
</g>
<g>
	<g>
		<path d="M296.707,215.294c-13.306-13.306-30.996-20.633-49.814-20.633c-18.817,0-36.507,7.328-49.813,20.633
			c-27.467,27.467-27.467,72.159,0,99.626c13.306,13.306,30.996,20.633,49.813,20.633s36.508-7.328,49.814-20.633
			C324.173,287.453,324.173,242.761,296.707,215.294z M286.006,304.219c-21.566,21.566-56.658,21.567-78.224,0
			c-21.567-21.567-21.567-56.658-0.001-78.225c10.785-10.784,24.946-16.175,39.113-16.175c14.163,0,28.33,5.393,39.112,16.175
			C307.573,247.561,307.573,282.652,286.006,304.219z"/>
	</g>
</g>
<g>
</g>
<g>
</g>
<g>
</g>
<g>
</g>
<g>
</g>
<g>
</g>
<g>
</g>
<g>
</g>
<g>
</g>
<g>
</g>
<g>
</g>
<g>
</g>
<g>
</g>
<g>
</g>
<g>
</g>
</svg>
